<?xml version="1.0" encoding="iso-8859-1"?>
<!-- Generator: Adobe Illustrator 19.0.0, SVG Export Plug-In . SVG Version: 6.00 Build 0)  -->
<svg version="1.1" id="Layer_1" xmlns="http://www.w3.org/2000/svg" xmlns:xlink="http://www.w3.org/1999/xlink" x="0px" y="0px"
	 viewBox="0 0 512 512" style="enable-background:new 0 0 512 512;" xml:space="preserve">
<path style="fill:#F7CE4D;" d="M143.568,445.514H46.193C20.682,445.514,0,424.833,0,399.321c0-25.511,20.682-46.193,46.193-46.193
	h78.241l211.335-211.336c8.663-8.662,20.412-13.529,32.664-13.529h97.375c25.511,0,46.193,20.682,46.193,46.193
	s-20.682,46.193-46.193,46.193h-78.241L176.231,431.985C167.568,440.647,155.818,445.514,143.568,445.514z"/>
<circle style="fill:#FCE5C5;" cx="221.153" cy="108.805" r="42.316"/>
<path style="fill:#32A8EA;" d="M255.627,221.935v-36.331c0-9.529-3.856-18.139-10.094-24.388
	c-6.238-6.238-14.858-10.094-24.377-10.094c-19.048,0-34.482,15.433-34.482,34.482v105.284"/>
<path style="fill:#EAD2B5;" d="M232.124,149.681c-3.5,0.94-7.178,1.442-10.971,1.442c-23.374,0-42.318-18.944-42.318-42.318
	s18.944-42.318,42.318-42.318c3.793,0,7.471,0.502,10.971,1.442c-18.056,4.827-31.347,21.295-31.347,40.876
	S214.068,144.853,232.124,149.681z"/>
<path style="fill:#2094C6;" d="M232.124,152.899c-13.667,4.587-23.51,17.492-23.51,32.705v83.341l-21.943,21.943V185.604
	c0-19.048,15.433-34.482,34.482-34.482C224.998,151.123,228.686,151.749,232.124,152.899z"/>
<path style="fill:#32A8EA;" d="M400.399,304.137c-1.782-1.783-4.311-2.599-6.797-2.194l-57.38,9.315
	c-4.273,0.694-7.173,4.72-6.48,8.991c0.695,4.273,4.72,7.171,8.991,6.48l33.416-5.424l-93.676,93.675
	c-3.06,3.061-3.06,8.023,0,11.082c1.53,1.53,3.536,2.296,5.541,2.296s4.011-0.765,5.541-2.296l93.676-93.675l-5.425,33.415
	c-0.694,4.272,2.208,8.298,6.48,8.991c0.425,0.069,0.848,0.102,1.265,0.102c3.775,0,7.101-2.736,7.726-6.582l9.315-57.38
	C402.996,308.448,402.18,305.918,400.399,304.137z"/>
<g>
</g>
<g>
</g>
<g>
</g>
<g>
</g>
<g>
</g>
<g>
</g>
<g>
</g>
<g>
</g>
<g>
</g>
<g>
</g>
<g>
</g>
<g>
</g>
<g>
</g>
<g>
</g>
<g>
</g>
</svg>
