<?xml version="1.0" encoding="iso-8859-1"?>
<!-- Generator: Adobe Illustrator 19.0.0, SVG Export Plug-In . SVG Version: 6.00 Build 0)  -->
<svg version="1.1" id="Layer_1" xmlns="http://www.w3.org/2000/svg" xmlns:xlink="http://www.w3.org/1999/xlink" x="0px" y="0px"
	 viewBox="0 0 496 496" style="enable-background:new 0 0 496 496;" xml:space="preserve">
<path style="fill:#F9BA48;" d="M408,288H104C46.656,288,0,241.344,0,184S46.656,80,104,80c8.192,0,16.312,0.96,24.224,2.848
	C138.312,66.344,156.392,56,176,56c8.208,0,16.2,1.776,23.536,5.168C220.672,23.752,260.792,0,304,0
	c63.96,0,116.4,50.304,119.824,113.432C465.44,120.904,496,156.952,496,200C496,248.52,456.52,288,408,288z"/>
<g>
	<path style="fill:#333333;" d="M448,352.64V336c0-13.232-10.768-24-24-24h-64c-4.416,0-8-3.584-8-8v-56h-16v56
		c0,13.232,10.768,24,24,24h64c4.416,0,8,3.584,8,8v16.64c-27.088,3.904-48,27.208-48,55.36v32c0,30.872,25.128,56,56,56
		s56-25.128,56-56v-32C496,379.848,475.088,356.544,448,352.64z M440,368c19.312,0,35.472,13.768,39.192,32H448v-16h-16v16h-31.192
		C404.528,381.768,420.688,368,440,368z M440,480c-22.056,0-40-17.944-40-40v-24h80v24C480,462.056,462.056,480,440,480z"/>
	<path style="fill:#333333;" d="M168,336c0-4.416,3.584-8,8-8h32c13.232,0,24-10.768,24-24v-56h-16v56c0,4.416-3.584,8-8,8h-32
		c-13.232,0-24,10.768-24,24v16H0v144h336V352H168V336z M320,480H16V368h304V480z"/>
	<rect x="32" y="448" style="fill:#333333;" width="16" height="16"/>
	<rect x="64" y="448" style="fill:#333333;" width="16" height="16"/>
	<rect x="256" y="448" style="fill:#333333;" width="16" height="16"/>
	<rect x="288" y="448" style="fill:#333333;" width="16" height="16"/>
	<rect x="32" y="416" style="fill:#333333;" width="16" height="16"/>
	<rect x="64" y="416" style="fill:#333333;" width="16" height="16"/>
	<rect x="96" y="416" style="fill:#333333;" width="16" height="16"/>
	<rect x="128" y="416" style="fill:#333333;" width="16" height="16"/>
	<rect x="160" y="416" style="fill:#333333;" width="16" height="16"/>
	<rect x="192" y="416" style="fill:#333333;" width="16" height="16"/>
	<rect x="224" y="416" style="fill:#333333;" width="16" height="16"/>
	<rect x="256" y="416" style="fill:#333333;" width="16" height="16"/>
	<rect x="288" y="416" style="fill:#333333;" width="16" height="16"/>
	<rect x="32" y="384" style="fill:#333333;" width="16" height="16"/>
	<rect x="64" y="384" style="fill:#333333;" width="16" height="16"/>
	<rect x="96" y="384" style="fill:#333333;" width="16" height="16"/>
	<rect x="128" y="384" style="fill:#333333;" width="16" height="16"/>
	<rect x="160" y="384" style="fill:#333333;" width="16" height="16"/>
	<rect x="192" y="384" style="fill:#333333;" width="16" height="16"/>
	<rect x="224" y="384" style="fill:#333333;" width="16" height="16"/>
	<rect x="256" y="384" style="fill:#333333;" width="16" height="16"/>
	<rect x="288" y="384" style="fill:#333333;" width="16" height="16"/>
	<rect x="96" y="448" style="fill:#333333;" width="144" height="16"/>
</g>
<g>
</g>
<g>
</g>
<g>
</g>
<g>
</g>
<g>
</g>
<g>
</g>
<g>
</g>
<g>
</g>
<g>
</g>
<g>
</g>
<g>
</g>
<g>
</g>
<g>
</g>
<g>
</g>
<g>
</g>
</svg>
