<?xml version="1.0" encoding="iso-8859-1"?>
<!-- Generator: Adobe Illustrator 19.0.0, SVG Export Plug-In . SVG Version: 6.00 Build 0)  -->
<svg version="1.1" id="Layer_1" xmlns="http://www.w3.org/2000/svg" xmlns:xlink="http://www.w3.org/1999/xlink" x="0px" y="0px"
	 viewBox="0 0 408.759 408.759" style="enable-background:new 0 0 408.759 408.759;" xml:space="preserve">
<g>
	<path style="fill:#FFBE00;" d="M204.383,408.759c-58.121,0-113.675-24.867-152.417-68.227
		C18.46,303.057,0.005,254.703,0.005,204.381C0.005,91.685,91.69,0,204.383,0c50.319,0,98.676,18.455,136.165,51.964
		c43.348,38.763,68.207,94.314,68.207,152.417C408.755,317.075,317.074,408.759,204.383,408.759"/>
	<path style="fill:#F4502A;" d="M377.75,204.377c0,18.08-2.77,35.52-7.911,51.899c-20.39,65.09-78.11,113.66-148.081,120.61
		c-5.719,0.58-11.51,0.87-17.378,0.87c-2.711,0-5.411-0.059-8.09-0.179c-2.781-0.14-5.551-0.331-8.301-0.591
		c-44.77-4.19-84.579-25.41-112.91-57.111c-0.26-0.29-0.521-0.589-0.791-0.879c-26.949-30.56-43.29-70.68-43.29-114.62
		c0-95.749,77.621-173.38,173.381-173.38c43.949,0,84.069,16.35,114.629,43.289c0.29,0.271,0.591,0.53,0.881,0.79
		c31.69,28.34,52.9,68.15,57.09,112.91c0.29,3.1,0.499,6.23,0.63,9.381C377.698,199.687,377.75,202.026,377.75,204.377"/>
	<path style="fill:#C29100;" d="M77.438,322.462c0.08,0.086,0.163,0.174,0.242,0.26C77.601,322.637,77.517,322.548,77.438,322.462
		 M74.578,319.314c0.933,1.052,1.876,2.091,2.833,3.12c-0.786-0.845-1.563-1.697-2.332-2.558
		C74.913,319.691,74.747,319.502,74.578,319.314"/>
	<path style="fill:#BA3D20;" d="M204.383,30.999c-95.76,0-173.38,77.621-173.38,173.37c0,44.1,16.457,84.351,43.574,114.944
		c0.169,0.188,0.335,0.377,0.501,0.562c0.769,0.861,1.546,1.712,2.332,2.558c0.008,0.009,0.018,0.02,0.027,0.028
		c0.08,0.085,0.163,0.175,0.242,0.26c4.648,4.973,9.583,9.669,14.783,14.067c-25.53-30.2-40.919-69.239-40.919-111.88
		c0-95.749,77.619-173.37,173.38-173.37c42.631,0,81.68,15.39,111.87,40.921C305.004,54.871,257.484,30.999,204.383,30.999"/>
	<path style="fill:#BA3D20;" d="M314.4,134.157L96.038,277.326L196.29,377.577c2.679,0.12,5.379,0.179,8.09,0.179
		c5.868,0,11.659-0.29,17.378-0.87c69.97-6.951,127.69-55.521,148.081-120.61c5.141-16.38,7.911-33.819,7.911-51.899
		c0-2.351-0.052-4.69-0.14-7.01l0,0L314.4,134.157"/>
	<path style="fill:#FFFFFF;" d="M302.749,128.38h-196.74c-8.08,0-14.63,6.55-14.63,14.63v122.74c0,8.08,6.55,14.63,14.63,14.63
		h140.08l45.618,45.618V280.38h11.041c8.08,0,14.63-6.55,14.63-14.63V143.01C317.379,134.93,310.829,128.38,302.749,128.38z"/>
	<rect x="127.879" y="162.463" style="fill:#1CA4BA;" width="153" height="11.333"/>
	<rect x="127.879" y="186.63" style="fill:#1CA4BA;" width="153" height="11.333"/>
	<rect x="127.879" y="210.797" style="fill:#1CA4BA;" width="153" height="11.333"/>
	<rect x="127.879" y="234.963" style="fill:#1CA4BA;" width="153" height="11.333"/>
</g>
<g>
</g>
<g>
</g>
<g>
</g>
<g>
</g>
<g>
</g>
<g>
</g>
<g>
</g>
<g>
</g>
<g>
</g>
<g>
</g>
<g>
</g>
<g>
</g>
<g>
</g>
<g>
</g>
<g>
</g>
</svg>
